<?xml version="1.0" encoding="utf-8"?>
<!-- Generator: Adobe Illustrator 25.4.1, SVG Export Plug-In . SVG Version: 6.00 Build 0)  -->
<svg version="1.1" id="Capa_1" xmlns="http://www.w3.org/2000/svg" xmlns:xlink="http://www.w3.org/1999/xlink" x="0px" y="0px"
	 viewBox="0 0 100 100" style="enable-background:new 0 0 100 100;" xml:space="preserve">
<style type="text/css">
	.st0{fill:#673AB7;}
</style>
<g>
	<path class="st0" d="M42.5,0.5c-13.5,0-26.1,6.5-34,17.3c-7.9,10.9-10.1,24.9-6,37.7c4.2,12.8,14.2,22.8,27,27
		c12.8,4.2,26.8,1.9,37.7-6l20.9,20.9c1.7,1.7,4.1,2.3,6.4,1.7c2.3-0.6,4.1-2.4,4.7-4.7c0.6-2.3,0-4.7-1.7-6.4L76.6,67.3
		c6.1-8.4,8.9-18.8,7.8-29.1c-1.1-10.3-6-19.9-13.7-26.9C63,4.3,52.9,0.5,42.5,0.5L42.5,0.5z M42.5,71.4c-7.7,0-15-3-20.4-8.5
		s-8.5-12.8-8.5-20.4s3-15,8.5-20.4s12.8-8.5,20.4-8.5s15,3,20.4,8.5s8.5,12.8,8.5,20.4c0,7.7-3.1,15-8.5,20.4
		C57.5,68.4,50.2,71.4,42.5,71.4z"/>
</g>
</svg>
