<?xml version="1.0" encoding="utf-8"?>
<!-- Generator: Adobe Illustrator 25.4.1, SVG Export Plug-In . SVG Version: 6.00 Build 0)  -->
<svg version="1.1" id="Capa_1" xmlns="http://www.w3.org/2000/svg" xmlns:xlink="http://www.w3.org/1999/xlink" x="0px" y="0px"
	 viewBox="0 0 100 100" style="enable-background:new 0 0 100 100;" xml:space="preserve">
<style type="text/css">
	.st0{fill-rule:evenodd;clip-rule:evenodd;fill:#787878;}
</style>
<g>
	<path class="st0" d="M46.5,80.1V96c0,2,1.6,3.5,3.5,3.5s3.5-1.6,3.5-3.5V80.1c0-2-1.6-3.5-3.5-3.5S46.5,78.1,46.5,80.1z M70.5,75.5
		L80,85c1.4,1.4,3.6,1.4,5,0s1.4-3.6,0-5l-9.5-9.5c-1.4-1.4-3.6-1.4-5,0S69.1,74.1,70.5,75.5L70.5,75.5z M24.5,70.5L15,80
		c-1.4,1.4-1.4,3.6,0,5s3.6,1.4,5,0l9.5-9.5c1.4-1.4,1.4-3.6,0-5S25.9,69.1,24.5,70.5z M50,27c-12.7,0-23,10.3-23,23s10.3,23,23,23
		s23-10.3,23-23S62.7,27,50,27z M19.9,46.5H4c-2,0-3.5,1.6-3.5,3.5c0,2,1.6,3.5,3.5,3.5h15.9c2,0,3.5-1.6,3.5-3.5
		C23.5,48,21.9,46.5,19.9,46.5z M96,46.5H80.1c-2,0-3.5,1.6-3.5,3.5c0,2,1.6,3.5,3.5,3.5H96c2,0,3.5-1.6,3.5-3.5
		C99.5,48,97.9,46.5,96,46.5z M80,15l-8.4,8.4c-1.4,1.4-1.4,3.6,0,5s3.6,1.4,5,0L85,20c1.4-1.4,1.4-3.6,0-5S81.4,13.6,80,15L80,15z
		 M15,20l8.4,8.4c1.4,1.4,3.6,1.4,5,0s1.4-3.6,0-5L20,15c-1.4-1.4-3.6-1.4-5,0S13.6,18.6,15,20z M46.5,4v15.9c0,2,1.6,3.5,3.5,3.5
		s3.5-1.6,3.5-3.5V4c0-2-1.6-3.5-3.5-3.5S46.5,2.1,46.5,4z"/>
</g>
</svg>
