<?xml version="1.0" encoding="utf-8"?>
<!-- Generator: Adobe Illustrator 25.4.1, SVG Export Plug-In . SVG Version: 6.00 Build 0)  -->
<svg version="1.1" id="Capa_1" xmlns="http://www.w3.org/2000/svg" xmlns:xlink="http://www.w3.org/1999/xlink" x="0px" y="0px"
	 viewBox="0 0 100 100" style="enable-background:new 0 0 100 100;" xml:space="preserve">
<style type="text/css">
	.st0{display:none;}
	.st1{display:inline;fill-rule:evenodd;clip-rule:evenodd;}
	.st2{fill:#673AB7;}
</style>
<g class="st0">
	<path class="st1" d="M46.5,80.1V96c0,2,1.6,3.5,3.5,3.5s3.5-1.6,3.5-3.5V80.1c0-2-1.6-3.5-3.5-3.5S46.5,78.1,46.5,80.1z M70.5,75.5
		L80,85c1.4,1.4,3.6,1.4,5,0s1.4-3.6,0-5l-9.5-9.5c-1.4-1.4-3.6-1.4-5,0S69.1,74.1,70.5,75.5L70.5,75.5z M24.5,70.5L15,80
		c-1.4,1.4-1.4,3.6,0,5s3.6,1.4,5,0l9.5-9.5c1.4-1.4,1.4-3.6,0-5S25.9,69.1,24.5,70.5z M50,27c-12.7,0-23,10.3-23,23s10.3,23,23,23
		s23-10.3,23-23S62.7,27,50,27z M19.9,46.5H4c-2,0-3.5,1.6-3.5,3.5c0,2,1.6,3.5,3.5,3.5h15.9c2,0,3.5-1.6,3.5-3.5
		C23.5,48,21.9,46.5,19.9,46.5z M96,46.5H80.1c-2,0-3.5,1.6-3.5,3.5c0,2,1.6,3.5,3.5,3.5H96c2,0,3.5-1.6,3.5-3.5
		C99.5,48,97.9,46.5,96,46.5z M80,15l-8.4,8.4c-1.4,1.4-1.4,3.6,0,5s3.6,1.4,5,0L85,20c1.4-1.4,1.4-3.6,0-5S81.4,13.6,80,15L80,15z
		 M15,20l8.4,8.4c1.4,1.4,3.6,1.4,5,0s1.4-3.6,0-5L20,15c-1.4-1.4-3.6-1.4-5,0S13.6,18.6,15,20z M46.5,4v15.9c0,2,1.6,3.5,3.5,3.5
		s3.5-1.6,3.5-3.5V4c0-2-1.6-3.5-3.5-3.5S46.5,2.1,46.5,4z"/>
</g>
<g>
	<path class="st2" d="M98.9,38.5l-5.6-1c-0.2,0-0.4-0.2-0.5-0.4L90,32c-0.3-0.5-1-0.5-1.4,0l-2.8,5c-0.1,0.2-0.3,0.3-0.5,0.4l-5.6,1
		c-0.6,0.1-0.8,0.8-0.4,1.3l3.9,4.2c0.1,0.2,0.2,0.4,0.2,0.6l-0.7,5.6c-0.1,0.6,0.5,1,1,0.7l5.2-2.4c0.2-0.1,0.4-0.1,0.6,0l5.2,2.4
		c0.5,0.2,1.1-0.2,1-0.7L95,44.6c0-0.2,0-0.4,0.2-0.6l3.9-4.2C99.8,39.3,99.6,38.6,98.9,38.5L98.9,38.5z"/>
	<path class="st2" d="M24.7,19.4l-5.6-1c-0.2,0-0.4-0.2-0.5-0.4l-2.8-5c-0.3-0.5-1-0.5-1.4,0l-2.8,5c-0.1,0.2-0.3,0.3-0.5,0.4
		l-5.6,1c-0.6,0.1-0.8,0.8-0.4,1.3L9,24.9c0.1,0.2,0.2,0.4,0.2,0.6l-0.7,5.6c-0.1,0.6,0.5,1,1,0.7l5.2-2.4c0.2-0.1,0.4-0.1,0.6,0
		l5.2,2.4c0.5,0.2,1.1-0.2,1-0.7l-0.7-5.6c0-0.2,0-0.4,0.2-0.6l3.9-4.2C25.5,20.3,25.2,19.5,24.7,19.4L24.7,19.4z"/>
	<path class="st2" d="M20.3,70.9l-5.6-1c-0.2,0-0.4-0.2-0.5-0.4l-2.8-5c-0.3-0.5-1-0.5-1.4,0l-2.7,5c-0.1,0.2-0.3,0.3-0.5,0.4
		l-5.6,1c-0.6,0.1-0.8,0.8-0.4,1.3l3.9,4.2c0.1,0.2,0.2,0.4,0.2,0.6l-0.6,5.7c-0.1,0.6,0.5,1,1,0.7l5.2-2.4c0.2-0.1,0.4-0.1,0.6,0
		l5.2,2.4c0.5,0.2,1.1-0.2,1-0.7l-0.7-5.6c0-0.2,0-0.4,0.2-0.6l3.9-4.2C21,71.8,20.8,71,20.3,70.9L20.3,70.9z"/>
	<path class="st2" d="M96.8,88.2C74.7,80.8,59.2,59.5,60.1,35c0.4-10.1,3.5-19.5,8.8-27.4c1.3-1.9-0.6-4.4-2.8-3.8
		C47,9.2,32.7,26.4,32,47.3c-1,26.1,19.3,48.1,45.4,49c7,0.3,13.7-0.9,19.7-3.4C99.1,92,99,89,96.8,88.2L96.8,88.2z"/>
</g>
</svg>
