<?xml version="1.0" encoding="utf-8"?>
<!-- Generator: Adobe Illustrator 25.4.1, SVG Export Plug-In . SVG Version: 6.00 Build 0)  -->
<svg version="1.1" id="Capa_1" xmlns="http://www.w3.org/2000/svg" xmlns:xlink="http://www.w3.org/1999/xlink" x="0px" y="0px"
	 viewBox="0 0 100 100" style="enable-background:new 0 0 100 100;" xml:space="preserve">
<style type="text/css">
	.st0{fill:#9E55E0;}
</style>
<g>
	<path class="st0" d="M94.8,46.9c-1.3,0-2.5,0.5-3.3,1.4c-0.9,0.9-1.4,2.1-1.4,3.3V73c0,3.2-1.3,6.2-3.5,8.4
		c-2.2,2.2-5.2,3.5-8.4,3.5H21.8c-3.2,0-6.2-1.3-8.4-3.5c-2.2-2.2-3.5-5.2-3.5-8.4V27c0-3.2,1.3-6.2,3.5-8.4
		c2.2-2.2,5.2-3.5,8.4-3.5h29.8c1.7,0,3.2-0.9,4.1-2.4c0.8-1.5,0.8-3.3,0-4.7c-0.8-1.5-2.4-2.4-4.1-2.4H21.8
		c-5.7,0-11.1,2.3-15.1,6.3c-4,4-6.2,9.4-6.3,15.1v46c0,5.7,2.3,11.1,6.3,15.1c4,4,9.4,6.2,15.1,6.3h56.3c5.7,0,11.1-2.3,15.1-6.3
		c4-4,6.2-9.4,6.3-15.1V51.6c0-1.3-0.5-2.5-1.4-3.3C97.2,47.4,96,46.9,94.8,46.9L94.8,46.9z"/>
	<path class="st0" d="M99.5,10.2c0-0.2,0-0.5-0.1-0.7c-0.2-1.1-0.8-2.1-1.6-2.8c-0.8-0.7-1.9-1.1-3-1.1H73.2c-1.7,0-3.2,0.9-4.1,2.4
		c-0.8,1.5-0.8,3.3,0,4.7c0.8,1.5,2.4,2.4,4.1,2.4h9.4L48.4,46.5c-1,0.8-1.5,2-1.6,3.3c-0.1,1.3,0.4,2.5,1.2,3.4
		c0.9,0.9,2.1,1.5,3.3,1.5c1.3,0,2.5-0.4,3.4-1.3l35.2-32.4v10c0,1.7,0.9,3.2,2.4,4.1c1.5,0.8,3.3,0.8,4.7,0
		c1.5-0.8,2.4-2.4,2.4-4.1V10.4C99.5,10.3,99.5,10.3,99.5,10.2L99.5,10.2z"/>
</g>
</svg>
