<?xml version="1.0" encoding="utf-8"?>
<!-- Generator: Adobe Illustrator 25.4.1, SVG Export Plug-In . SVG Version: 6.00 Build 0)  -->
<svg version="1.1" id="Capa_1" xmlns="http://www.w3.org/2000/svg" xmlns:xlink="http://www.w3.org/1999/xlink" x="0px" y="0px"
	 viewBox="0 0 177.1 236.6" style="enable-background:new 0 0 177.1 236.6;" xml:space="preserve">
<style type="text/css">
	.st0{fill:#6C19FF;}
	.st1{fill:#A64AFF;}
	.st2{fill:#EB0000;}
	.st3{fill:#F55376;}
	.st4{fill:#2100C4;}
</style>
<g>
	<path class="st0" d="M174.9,186.9H4v-164C4,12.2,12.7,3.6,23.3,3.6h151.5V186.9z"/>
	<path class="st1" d="M33.6,205.6h-11c-10.3,0-18.6-8.3-18.6-18.6v0c0-10.3,8.3-18.6,18.6-18.6h11c10.3,0,18.6,8.3,18.6,18.6v0
		C52.3,197.2,43.9,205.6,33.6,205.6z"/>
	<rect x="30.6" y="168.3" class="st2" width="48.3" height="37.3"/>
	<rect x="78.8" y="168.3" class="st1" width="96" height="37.3"/>
	<polygon class="st3" points="78.8,232.2 54.7,221.8 30.6,232.2 30.6,205.6 78.8,205.6 	"/>
	<g>
		<g>
			<rect x="31.1" y="13.9" class="st4" width="15.7" height="15.7"/>
			<rect x="31.1" y="45.3" class="st4" width="15.7" height="15.7"/>
			<rect x="31.1" y="76.7" class="st4" width="15.7" height="15.7"/>
			<rect x="31.1" y="108.1" class="st4" width="15.7" height="15.7"/>
			<rect x="31.1" y="139.5" class="st4" width="15.7" height="15.7"/>
		</g>
	</g>
</g>
</svg>
